<svg xmlns="http://www.w3.org/2000/svg" xmlns:xlink="http://www.w3.org/1999/xlink" width="2442" height="930" viewBox="0 0 2442 930" xml:space="preserve"><desc>Created with Fabric.js 4.6.0</desc><defs></defs><g transform="matrix(0.98 0 0 0.98 1377 462.72)" id="o8ITPWRc3cNREHXjL6Hsf"><g style="">		<g transform="matrix(1 0 0 1 -989.75 0)" id="84JRkkCOziLm0yziSnKhw"><path style="stroke: none; stroke-width: 1; stroke-dasharray: none; stroke-linecap: butt; stroke-dashoffset: 0; stroke-linejoin: miter; stroke-miterlimit: 4; fill: rgb(255,47,141); fill-rule: nonzero; opacity: 1;" transform=" translate(-442.2, -589.65)" d="M 482.1 1061.7 L 402.3 1061.7 C 393.7 1061.7 386.8 1054.8 386.8 1046.2 L 386.8 133.1 C 386.8 124.5 393.7 117.6 402.3 117.6 L 482.1 117.6 C 490.70000000000005 117.6 497.6 124.5 497.6 133.1 L 497.6 1046.2 C 497.6 1054.7 490.6 1061.7 482.1 1061.7 z" stroke-linecap="round"></path></g>		<g transform="matrix(1 0 0 1 -1179.75 2.85)" id="MRRM9m_V7bM3qSuojahqB"><path style="stroke: none; stroke-width: 1; stroke-dasharray: none; stroke-linecap: butt; stroke-dashoffset: 0; stroke-linejoin: miter; stroke-miterlimit: 4; fill: rgb(255,47,141); fill-rule: nonzero; opacity: 1;" transform=" translate(-252.2, -592.5)" d="M 296.7 826.4 L 207.7 826.4 C 201.7 826.4 196.79999999999998 821.5 196.79999999999998 815.5 L 196.79999999999998 369.5 C 196.79999999999998 363.5 201.7 358.6 207.7 358.6 L 296.7 358.6 C 302.7 358.6 307.59999999999997 363.5 307.59999999999997 369.5 L 307.59999999999997 815.5 C 307.6 821.5 302.7 826.4 296.7 826.4 z" stroke-linecap="round"></path></g>		<g transform="matrix(1 0 0 1 -802.35 2.85)" id="C-SKEyt6PGEtPWjdoFyZC"><path style="stroke: none; stroke-width: 1; stroke-dasharray: none; stroke-linecap: butt; stroke-dashoffset: 0; stroke-linejoin: miter; stroke-miterlimit: 4; fill: rgb(255,47,141); fill-rule: nonzero; opacity: 1;" transform=" translate(-629.6, -592.5)" d="M 674.1 826.4 L 585.1 826.4 C 579.1 826.4 574.2 821.5 574.2 815.5 L 574.2 369.5 C 574.2 363.5 579.1 358.6 585.1 358.6 L 674.1 358.6 C 680.1 358.6 685 363.5 685 369.5 L 685 815.5 C 685 821.5 680.1 826.4 674.1 826.4 z" stroke-linecap="round"></path></g>		<g transform="matrix(1 0 0 1 -630.05 17.15)" id="DEU5Nbo4NNWa1dimx1xaU"><path style="stroke: none; stroke-width: 1; stroke-dasharray: none; stroke-linecap: butt; stroke-dashoffset: 0; stroke-linejoin: miter; stroke-miterlimit: 4; fill: rgb(255,47,141); fill-rule: nonzero; opacity: 1;" transform=" translate(-801.9, -606.8)" d="M 843.3 729 L 760.5 729 C 752.8 729 746.5 722.7 746.5 715 L 746.5 498.6 C 746.5 490.90000000000003 752.8 484.6 760.5 484.6 L 843.3 484.6 C 851 484.6 857.3 490.90000000000003 857.3 498.6 L 857.3 715 C 857.3 722.8 851 729 843.3 729 z" stroke-linecap="round"></path></g>		<g transform="matrix(1 0 0 1 -1350.35 17.15)" id="YKytEeLzLs6Jle7OWtMGn"><path style="stroke: none; stroke-width: 1; stroke-dasharray: none; stroke-linecap: butt; stroke-dashoffset: 0; stroke-linejoin: miter; stroke-miterlimit: 4; fill: rgb(255,47,141); fill-rule: nonzero; opacity: 1;" transform=" translate(-81.6, -606.8)" d="M 123 729 L 40.2 729 C 32.5 729 26.200000000000003 722.7 26.200000000000003 715 L 26.200000000000003 498.6 C 26.200000000000003 490.90000000000003 32.5 484.6 40.2 484.6 L 123 484.6 C 130.7 484.6 137 490.90000000000003 137 498.6 L 137 715 C 137 722.8 130.7 729 123 729 z" stroke-linecap="round"></path></g>		<g transform="matrix(1 0 0 1 -291.05 33.8)" id="cJh5EBdFniVBX9Cpd-mzL"><linearGradient id="SVGID_11" gradientUnits="userSpaceOnUse" gradientTransform="matrix(1 0 0 1 0 0)" x1="936.3499" y1="624.0659" x2="3189.7175" y2="616.466"><stop offset="0%" style="stop-color:rgb(255,48,158);stop-opacity: 1"></stop><stop offset="100%" style="stop-color:rgb(214,60,255);stop-opacity: 1"></stop></linearGradient><path style="stroke: none; stroke-width: 1; stroke-dasharray: none; stroke-linecap: butt; stroke-dashoffset: 0; stroke-linejoin: miter; stroke-miterlimit: 4; fill: url(#SVGID_11); fill-rule: nonzero; opacity: 1;" transform=" translate(-1140.9, -623.45)" d="M 1021.1 518 C 1019.2 513.5 1018.2 508.6 1018.2 503.2 C 1018.2 498.7 1019 494.3 1020.5 489.9 C 1022.1 485.5 1024.3 481.7 1027.2 478.29999999999995 C 1030.1000000000001 474.99999999999994 1033.6000000000001 472.29999999999995 1037.5 470.29999999999995 C 1041.5 468.29999999999995 1045.8 467.19999999999993 1050.5 467.19999999999993 C 1056.7 467.19999999999993 1062.5 469.0999999999999 1067.8 472.99999999999994 C 1073.1 476.8999999999999 1077.2 481.99999999999994 1079.8999999999999 488.3999999999999 L 1141.6999999999998 660.0999999999999 L 1201.7999999999997 488.69999999999993 C 1204.2999999999997 482.0999999999999 1208.3999999999996 476.79999999999995 1213.8999999999996 472.8999999999999 C 1219.3999999999996 468.99999999999994 1225.2999999999997 467.0999999999999 1231.4999999999995 467.0999999999999 C 1236.1999999999996 467.0999999999999 1240.4999999999995 468.0999999999999 1244.4999999999995 470.19999999999993 C 1248.4999999999995 472.19999999999993 1251.8999999999996 474.8999999999999 1254.6999999999996 478.19999999999993 C 1257.4999999999995 481.49999999999994 1259.6999999999996 485.29999999999995 1261.2999999999995 489.5999999999999 C 1262.8999999999994 493.8999999999999 1263.5999999999995 498.2999999999999 1263.5999999999995 502.7999999999999 C 1263.5999999999995 507.4999999999999 1262.5999999999995 512.5999999999999 1260.6999999999994 517.8999999999999 L 1171.5999999999995 758.4999999999999 C 1167.6999999999994 766.3999999999999 1163.1999999999994 771.9999999999999 1158.1999999999994 775.0999999999999 C 1153.0999999999995 778.1999999999999 1147.4999999999993 779.8 1141.2999999999993 779.8 C 1133.8999999999992 779.8 1127.6999999999994 777.5999999999999 1122.6999999999994 773.1999999999999 C 1117.5999999999995 768.8 1114.0999999999995 763.9 1111.8999999999994 758.5999999999999 L 1021.1 518 z" stroke-linecap="round"></path></g>		<g transform="matrix(1 0 0 1 -3.75 33.65)" id="9KcqAe9mYDKiprRMLdphw"><linearGradient id="SVGID_12" gradientUnits="userSpaceOnUse" gradientTransform="matrix(1 0 0 1 0 0)" x1="936.3526" y1="624.8897" x2="3189.7202" y2="617.2898"><stop offset="0%" style="stop-color:rgb(255,48,158);stop-opacity: 1"></stop><stop offset="100%" style="stop-color:rgb(214,60,255);stop-opacity: 1"></stop></linearGradient><path style="stroke: none; stroke-width: 1; stroke-dasharray: none; stroke-linecap: butt; stroke-dashoffset: 0; stroke-linejoin: miter; stroke-miterlimit: 4; fill: url(#SVGID_12); fill-rule: nonzero; opacity: 1;" transform=" translate(-1428.2, -623.3)" d="M 1278.9 623.6 C 1278.9 601.7 1282.8000000000002 581.1 1290.7 561.8000000000001 C 1298.5 542.5000000000001 1309.3 525.7 1322.8 511.30000000000007 C 1336.3999999999999 496.9000000000001 1352.2 485.50000000000006 1370.2 477.20000000000005 C 1388.3 468.90000000000003 1407.6000000000001 464.70000000000005 1428.2 464.70000000000005 C 1448.8 464.70000000000005 1468.2 468.90000000000003 1486.3 477.20000000000005 C 1504.5 485.50000000000006 1520.3 496.90000000000003 1533.7 511.30000000000007 C 1547.2 525.7 1557.8 542.6 1565.7 561.8000000000001 C 1573.5 581.1 1577.5 601.7 1577.5 623.6 C 1577.5 645.5 1573.6 666 1565.7 685.2 C 1557.8 704.4000000000001 1547.2 721.1 1533.7 735.4000000000001 C 1520.2 749.7000000000002 1504.4 761.0000000000001 1486.3 769.4000000000001 C 1468.1 777.7 1448.8 781.9000000000001 1428.2 781.9000000000001 C 1407.6000000000001 781.9000000000001 1388.3 777.7 1370.2 769.4000000000001 C 1352.1000000000001 761.1000000000001 1336.3 749.7 1322.8 735.4000000000001 C 1309.2 721.1000000000001 1298.5 704.4000000000001 1290.7 685.2 C 1282.8 666 1278.9 645.4 1278.9 623.6 z M 1346.8 623.6 C 1346.8 635.5 1348.8999999999999 646.7 1353.2 657.1 C 1357.5 667.5 1363.3 676.6 1370.7 684.4 C 1378.1000000000001 692.1999999999999 1386.6000000000001 698.4 1396.5 702.9 C 1406.3 707.5 1416.8 709.6999999999999 1428.1 709.6999999999999 C 1439.5 709.6999999999999 1450.1999999999998 707.4 1460.1 702.9 C 1470 698.4 1478.6 692.1999999999999 1486 684.4 C 1493.4 676.6 1499.1 667.5 1503.3 657.1 C 1507.5 646.7 1509.6 635.5 1509.6 623.6 C 1509.6 611.7 1507.5 600.5 1503.1999999999998 590.1 C 1498.8999999999999 579.7 1493.1 570.6 1485.6999999999998 562.8000000000001 C 1478.2999999999997 555.0000000000001 1469.6999999999998 548.9000000000001 1459.7999999999997 544.4000000000001 C 1449.8999999999996 540.0000000000001 1439.2999999999997 537.7 1428.0999999999997 537.7 C 1417.0999999999997 537.7 1406.5999999999997 539.9000000000001 1396.6999999999996 544.4000000000001 C 1386.7999999999995 548.8000000000001 1378.1999999999996 555.0000000000001 1370.7999999999995 562.8000000000001 C 1363.3999999999994 570.6 1357.5999999999995 579.7 1353.2999999999995 590.1 C 1348.9 600.5 1346.8 611.6 1346.8 623.6 z" stroke-linecap="round"></path></g>		<g transform="matrix(1 0 0 1 726.15 33.3)" id="0b5q2BNkPuEIdCmNj5HxS"><linearGradient id="SVGID_13" gradientUnits="userSpaceOnUse" gradientTransform="matrix(1 0 0 1 0 0)" x1="936.3605" y1="627.2191" x2="3189.728" y2="619.6192"><stop offset="0%" style="stop-color:rgb(255,48,158);stop-opacity: 1"></stop><stop offset="100%" style="stop-color:rgb(214,60,255);stop-opacity: 1"></stop></linearGradient><path style="stroke: none; stroke-width: 1; stroke-dasharray: none; stroke-linecap: butt; stroke-dashoffset: 0; stroke-linejoin: miter; stroke-miterlimit: 4; fill: url(#SVGID_13); fill-rule: nonzero; opacity: 1;" transform=" translate(-2158.1, -622.95)" d="M 2236.3 760.5 C 2230.4 764.6 2223.7000000000003 768.2 2216 771.3 C 2208.3 774.4 2199.7 776.9 2190.2 778.8 C 2180.6 780.6999999999999 2169.8999999999996 781.5999999999999 2157.8999999999996 781.5999999999999 C 2137.0999999999995 781.5999999999999 2117.5999999999995 777.3999999999999 2099.3999999999996 769.0999999999999 C 2081.0999999999995 760.8 2065.2 749.3999999999999 2051.5999999999995 734.9999999999999 C 2037.9999999999995 720.5999999999999 2027.1999999999994 703.7999999999998 2019.1999999999994 684.5999999999999 C 2011.1999999999994 665.3999999999999 2007.1999999999994 644.8999999999999 2007.1999999999994 622.8999999999999 C 2007.1999999999994 600.9999999999999 2011.1999999999994 580.3999999999999 2019.1999999999994 561.0999999999999 C 2027.1999999999994 541.8 2037.9999999999993 524.9999999999999 2051.5999999999995 510.69999999999993 C 2065.1999999999994 496.3999999999999 2081.1999999999994 485.0999999999999 2099.3999999999996 476.79999999999995 C 2117.7 468.49999999999994 2137.2 464.29999999999995 2157.8999999999996 464.29999999999995 C 2178.4999999999995 464.29999999999995 2197.7999999999997 468.4 2215.9999999999995 476.59999999999997 C 2234.0999999999995 484.79999999999995 2250.0999999999995 495.9 2263.7999999999997 509.99999999999994 C 2277.4999999999995 524.0999999999999 2288.3999999999996 540.5999999999999 2296.3999999999996 559.6999999999999 C 2304.3999999999996 578.8 2308.5999999999995 599.0999999999999 2308.9999999999995 620.9 C 2308.9999999999995 631.1 2305.8999999999996 639.3 2299.6999999999994 645.6999999999999 C 2293.4999999999995 651.9999999999999 2285.399999999999 655.1999999999999 2275.2999999999993 655.1999999999999 L 2069.5999999999995 655.1999999999999 C 2097.2999999999993 713.5999999999999 2142.4999999999995 742.5999999999999 2216.8999999999996 700.3 C 2232.2 691.5999999999999 2246.5999999999995 696.9 2254.5999999999995 707.0999999999999 C 2265.1 720.4 2266.7 739.8 2236.3 760.5 z M 2235.9 593.2 C 2233.5 583.3000000000001 2229.7000000000003 574.3000000000001 2224.5 566.3000000000001 C 2219.3 558.3000000000001 2213.1 551.5000000000001 2205.9 545.9000000000001 C 2198.7000000000003 540.3000000000001 2190.7000000000003 536.1000000000001 2181.9 533.2 C 2173.1 530.3000000000001 2163.6 528.8000000000001 2153.6 528.8000000000001 C 2143.6 528.8000000000001 2134.2 530.4000000000001 2125.2999999999997 533.5000000000001 C 2116.4999999999995 536.7000000000002 2108.4999999999995 541.0000000000001 2101.3999999999996 546.6000000000001 C 2094.2999999999997 552.2000000000002 2088.2999999999997 558.9000000000001 2083.2999999999997 566.8000000000002 C 2078.2999999999997 574.7000000000002 2074.6 583.5000000000002 2072.2 593.2000000000002 L 2235.9 593.2000000000002 z" stroke-linecap="round"></path></g>		<g transform="matrix(1 0 0 1 210.65 34.1)" id="_tcXzzNJUw4abo31oGYnw"><linearGradient id="SVGID_14" gradientUnits="userSpaceOnUse" gradientTransform="matrix(1 0 0 1 0 0)" x1="936.3569" y1="626.142" x2="3189.7246" y2="618.5421"><stop offset="0%" style="stop-color:rgb(255,48,158);stop-opacity: 1"></stop><stop offset="100%" style="stop-color:rgb(214,60,255);stop-opacity: 1"></stop></linearGradient><path style="stroke: none; stroke-width: 1; stroke-dasharray: none; stroke-linecap: butt; stroke-dashoffset: 0; stroke-linejoin: miter; stroke-miterlimit: 4; fill: url(#SVGID_14); fill-rule: nonzero; opacity: 1;" transform=" translate(-1642.6, -623.75)" d="M 1642.6 781.6 L 1642.6 781.6 C 1626 781.6 1612.6 768.2 1612.6 751.6 L 1612.6 495.9 C 1612.6 479.29999999999995 1626 465.9 1642.6 465.9 L 1642.6 465.9 C 1659.1999999999998 465.9 1672.6 479.29999999999995 1672.6 495.9 L 1672.6 751.7 C 1672.6 768.2 1659.2 781.6 1642.6 781.6 z" stroke-linecap="round"></path></g>		<g transform="matrix(1 0 0 1 1119.25 172.75)" id="q702g-g7ydUHWB3l5IFuC"><linearGradient id="SVGID_15" gradientUnits="userSpaceOnUse" gradientTransform="matrix(1 0 0 1 -2531.6 -742.8)" x1="936.8349" y1="767.8751" x2="3190.2026" y2="760.2751"><stop offset="0%" style="stop-color:rgb(255,48,158);stop-opacity: 1"></stop><stop offset="100%" style="stop-color:rgb(214,60,255);stop-opacity: 1"></stop></linearGradient><path style="stroke: none; stroke-width: 1; stroke-dasharray: none; stroke-linecap: butt; stroke-dashoffset: 0; stroke-linejoin: miter; stroke-miterlimit: 4; fill: url(#SVGID_15); fill-rule: nonzero; opacity: 1;" transform=" translate(-19.6, -19.6)" d="M 0 19.6 C 0 8.775220000000001 8.77522 0 19.6 0 C 30.424780000000002 0 39.2 8.77522 39.2 19.6 C 39.2 30.424780000000002 30.424780000000005 39.2 19.6 39.2 C 8.775220000000001 39.2 0 30.424780000000005 0 19.6 z" stroke-linecap="round"></path></g>		<g transform="matrix(1 0 0 1 414.22 35.1)" id="rqFwnR4Zt4BYa6dG1OGuy"><linearGradient id="SVGID_16" gradientUnits="userSpaceOnUse" gradientTransform="matrix(1 0 0 1 0 0)" x1="936.3627" y1="627.8738" x2="3189.7302" y2="620.2739"><stop offset="0%" style="stop-color:rgb(255,48,158);stop-opacity: 1"></stop><stop offset="100%" style="stop-color:rgb(214,60,255);stop-opacity: 1"></stop></linearGradient><path style="stroke: none; stroke-width: 1; stroke-dasharray: none; stroke-linecap: butt; stroke-dashoffset: 0; stroke-linejoin: miter; stroke-miterlimit: 4; fill: url(#SVGID_16); fill-rule: nonzero; opacity: 1;" transform=" translate(-1846.17, -624.75)" d="M 1852.6 780.9 C 1852 780.9 1851.5 780.9 1850.8999999999999 780.9 C 1800.1999999999998 780.3 1753.8999999999999 752.8 1727.1999999999998 707.3 C 1700.1999999999998 661.3 1696.9999999999998 606.6999999999999 1718.2999999999997 557.4 C 1741.9999999999998 502.5 1791.7999999999997 469.29999999999995 1851.6999999999998 468.59999999999997 C 1852.2999999999997 468.59999999999997 1852.9999999999998 468.59999999999997 1853.6 468.59999999999997 C 1911.1999999999998 468.59999999999997 1962.6999999999998 499.79999999999995 1985.1 548.5 C 1992 563.5 1985.3999999999999 581.3 1970.3999999999999 588.2 C 1955.3999999999999 595.1 1937.6 588.5 1930.6999999999998 573.5 C 1917.8999999999999 545.7 1887.1 528 1852.3999999999999 528.4 C 1835.3 528.6 1793.4999999999998 534.1999999999999 1773.1999999999998 581 C 1759.6 612.6 1761.6 647.6 1778.7999999999997 676.9 C 1794.7999999999997 704.1 1821.9999999999998 720.6 1851.4999999999998 720.9 C 1851.7999999999997 720.9 1852.0999999999997 720.9 1852.3999999999999 720.9 C 1883.9999999999998 720.9 1913.1999999999998 703 1932.6 671.6 C 1941.3 657.5 1959.6999999999998 653.2 1973.8 661.9 C 1987.8999999999999 670.6 1992.2 689 1983.5 703.1 C 1953.1 752.7 1905.4 780.9 1852.6 780.9 z" stroke-linecap="round"></path></g>		<g transform="matrix(1 0 0 1 981.07 34.33)" id="sBC3fhOmInB6mvd3WTccs"><linearGradient id="SVGID_17" gradientUnits="userSpaceOnUse" gradientTransform="matrix(1 0 0 1 0 0)" x1="936.3665" y1="628.985" x2="3189.7341" y2="621.3852"><stop offset="0%" style="stop-color:rgb(255,48,158);stop-opacity: 1"></stop><stop offset="100%" style="stop-color:rgb(214,60,255);stop-opacity: 1"></stop></linearGradient><path style="stroke: none; stroke-width: 1; stroke-dasharray: none; stroke-linecap: butt; stroke-dashoffset: 0; stroke-linejoin: miter; stroke-miterlimit: 4; fill: url(#SVGID_17); fill-rule: nonzero; opacity: 1;" transform=" translate(-2413.02, -623.98)" d="M 2458.4 567.1 C 2464.8 570.8000000000001 2472.2000000000003 572.1 2479.6 570 C 2485.1 568.4 2489.7999999999997 564.8 2493.2999999999997 560.3 C 2511.7999999999997 536.9 2499.4999999999995 511.19999999999993 2468.3999999999996 485.49999999999994 C 2376.0999999999995 409.0999999999999 2252.7999999999997 571.3 2375.5999999999995 644.5999999999999 C 2385.2999999999993 650.3999999999999 2396.2999999999993 653.8 2407.5999999999995 654.8999999999999 L 2407.5999999999995 654.8999999999999 C 2444.2999999999993 655.6999999999998 2451.9999999999995 694.8999999999999 2430.8999999999996 713.1999999999998 C 2418.4999999999995 723.9999999999998 2399.3999999999996 721.0999999999998 2389.7 707.8999999999999 C 2389.7 707.8999999999999 2377.2 689.2999999999998 2372.1 683.8999999999999 C 2363.9 675.1999999999998 2346 672.2999999999998 2335.7 683.3999999999999 C 2324.8999999999996 694.9999999999999 2322.5 712.1999999999998 2331.7 726.9999999999999 C 2389.3999999999996 819.1999999999999 2488 786.1999999999999 2500.5 702.4999999999999 C 2506.2 664.0999999999999 2488.8 625.3999999999999 2455.8 604.9999999999999 C 2446.4 599.1999999999999 2436.3 595.5999999999999 2425.3 594.8999999999999 C 2423.1000000000004 594.7999999999998 2420.8 594.6999999999998 2418.6000000000004 594.3999999999999 C 2380.6000000000004 589.2999999999998 2372.1000000000004 551.3999999999999 2401.7000000000003 534.1999999999998 C 2409.9 529.3999999999999 2420.0000000000005 528.7999999999998 2428.3 533.4999999999998 C 2434.4 536.9999999999998 2438.9 542.4999999999998 2442.3 549.2999999999997 C 2446 556.6 2451.4 563 2458.4 567.1 z" stroke-linecap="round"></path></g>		<g transform="matrix(1 0 0 1 1250.75 94.05)" id="b_Faj0OJJd1hP1eeu_bfz"><linearGradient id="SVGID_18" gradientUnits="userSpaceOnUse" gradientTransform="matrix(1 0 0 1 0 0)" x1="2402.4102" y1="681.9102" x2="3206.6655" y2="688.0379"><stop offset="0%" style="stop-color:rgb(255,48,158);stop-opacity: 1"></stop><stop offset="1.90782%" style="stop-color:rgb(252,49,166);stop-opacity: 1"></stop><stop offset="9.723085%" style="stop-color:rgb(240,52,193);stop-opacity: 1"></stop><stop offset="18.61%" style="stop-color:rgb(230,55,216);stop-opacity: 1"></stop><stop offset="28.849999999999998%" style="stop-color:rgb(223,57,234);stop-opacity: 1"></stop><stop offset="41.29%" style="stop-color:rgb(218,59,246);stop-opacity: 1"></stop><stop offset="58.24%" style="stop-color:rgb(215,60,253);stop-opacity: 1"></stop><stop offset="100%" style="stop-color:rgb(214,60,255);stop-opacity: 1"></stop></linearGradient><path style="stroke: none; stroke-width: 1; stroke-dasharray: none; stroke-linecap: butt; stroke-dashoffset: 0; stroke-linejoin: miter; stroke-miterlimit: 4; fill: url(#SVGID_18); fill-rule: nonzero; opacity: 1;" transform=" translate(-2682.7, -683.7)" d="M 2764 753.8 C 2764 756.6999999999999 2763.5 759.5 2762.5 762 C 2761.5 764.5 2760.1 766.7 2758.4 768.5 C 2756.7000000000003 770.4 2754.7000000000003 771.8 2752.3 772.8 C 2749.9 773.8 2747.4 774.3 2744.8 774.3 C 2742 774.3 2739.4 773.8 2737 772.8 C 2734.6 771.8 2732.5 770.3 2730.7 768.5 C 2728.8999999999996 766.6 2727.3999999999996 764.5 2726.3999999999996 762 C 2725.2999999999997 759.5 2724.7999999999997 756.8 2724.7999999999997 753.8 L 2724.7999999999997 682.4 C 2724.7999999999997 681.4 2724.8999999999996 680.6 2724.9999999999995 680.1 C 2724.7999999999997 673.8000000000001 2723.4999999999995 667.9 2721.2999999999997 662.4 C 2719.1 656.9 2716.1 652.1 2712.3999999999996 648 C 2708.7 643.9 2704.2999999999997 640.7 2699.2999999999997 638.3 C 2694.2 635.9 2688.7 634.6999999999999 2682.7999999999997 634.6999999999999 C 2676.6 634.6999999999999 2670.9999999999995 635.9 2665.7999999999997 638.3 C 2660.6 640.6999999999999 2656.2 644 2652.4999999999995 648.1999999999999 C 2648.7999999999997 652.4 2645.8999999999996 657.4 2643.7999999999997 663.0999999999999 C 2641.7 668.8 2640.6 674.8999999999999 2640.6 681.3999999999999 L 2640.6 753.6999999999998 C 2640.6 756.5999999999998 2640.1 759.3999999999999 2639.2 761.8999999999999 C 2638.2 764.3999999999999 2636.8999999999996 766.5999999999999 2635.1 768.3999999999999 C 2633.2999999999997 770.2999999999998 2631.2999999999997 771.6999999999998 2628.9 772.6999999999998 C 2626.5 773.6999999999998 2624 774.1999999999998 2621.4 774.1999999999998 C 2618.7000000000003 774.1999999999998 2616.2000000000003 773.6999999999998 2613.8 772.6999999999998 C 2611.4 771.6999999999998 2609.2000000000003 770.1999999999998 2607.4 768.3999999999999 C 2605.5 766.4999999999999 2604.1 764.3999999999999 2603 761.8999999999999 C 2601.9 759.3999999999999 2601.4 756.6999999999998 2601.4 753.6999999999998 L 2601.4 682.2999999999998 L 2601.4 681.4999999999999 L 2601.4 681.2999999999998 C 2601.4 668.9999999999999 2603.5 657.4999999999999 2607.6 646.8999999999999 C 2611.7999999999997 636.1999999999998 2617.5 626.8999999999999 2624.7999999999997 618.8999999999999 C 2632.1 610.8999999999999 2640.7 604.5999999999999 2650.7 599.9999999999999 C 2660.7 595.3999999999999 2671.3999999999996 593.0999999999999 2682.7999999999997 593.0999999999999 C 2694.3999999999996 593.0999999999999 2705.1 595.3999999999999 2714.9999999999995 599.9999999999999 C 2724.8999999999996 604.5999999999999 2733.4999999999995 610.8999999999999 2740.6999999999994 618.8999999999999 C 2747.899999999999 626.8999999999999 2753.5999999999995 636.1999999999998 2757.7999999999993 646.8999999999999 C 2761.999999999999 657.5999999999999 2763.999999999999 669.0999999999999 2763.999999999999 681.2999999999998 L 2763.999999999999 681.4999999999999 L 2763.999999999999 682.2999999999998 L 2763.999999999999 753.8 z" stroke-linecap="round"></path></g>		<g transform="matrix(1 0 0 1 1385.95 49.5)" id="g9vt3VGG0TecVIfHg6mJa"><linearGradient id="SVGID_19" gradientUnits="userSpaceOnUse" gradientTransform="matrix(1 0 0 1 0 0)" x1="2402.7603" y1="635.966" x2="3207.0156" y2="642.0936"><stop offset="0%" style="stop-color:rgb(255,48,158);stop-opacity: 1"></stop><stop offset="1.660657%" style="stop-color:rgb(252,49,165);stop-opacity: 1"></stop><stop offset="9.822517999999999%" style="stop-color:rgb(240,52,193);stop-opacity: 1"></stop><stop offset="19.06%" style="stop-color:rgb(231,55,216);stop-opacity: 1"></stop><stop offset="29.65%" style="stop-color:rgb(223,57,233);stop-opacity: 1"></stop><stop offset="42.41%" style="stop-color:rgb(218,59,246);stop-opacity: 1"></stop><stop offset="59.58%" style="stop-color:rgb(215,60,253);stop-opacity: 1"></stop><stop offset="100%" style="stop-color:rgb(214,60,255);stop-opacity: 1"></stop></linearGradient><path style="stroke: none; stroke-width: 1; stroke-dasharray: none; stroke-linecap: butt; stroke-dashoffset: 0; stroke-linejoin: miter; stroke-miterlimit: 4; fill: url(#SVGID_19); fill-rule: nonzero; opacity: 1;" transform=" translate(-2817.9, -639.15)" d="M 2817.9 774.4 L 2817.9 774.4 C 2807 774.4 2798.1 765.5 2798.1 754.6 L 2798.1 523.7 C 2798.1 512.8000000000001 2807 503.90000000000003 2817.9 503.90000000000003 L 2817.9 503.90000000000003 C 2828.8 503.90000000000003 2837.7000000000003 512.8000000000001 2837.7000000000003 523.7 L 2837.7000000000003 754.6 C 2837.7 765.5 2828.8 774.4 2817.9 774.4 z" stroke-linecap="round"></path></g>		<g transform="matrix(1 0 0 1 210.65 -213.05)" id="oXF4kw0zpkd8BRAcMC6Mh"><linearGradient id="SVGID_20" gradientUnits="userSpaceOnUse" gradientTransform="matrix(1 0 0 1 -1612.5 -346.5)" x1="1195.2068" y1="374.2411" x2="2068.3982" y2="378.8369"><stop offset="0%" style="stop-color:rgb(255,48,158);stop-opacity: 1"></stop><stop offset="100%" style="stop-color:rgb(214,60,255);stop-opacity: 1"></stop></linearGradient><path style="stroke: none; stroke-width: 1; stroke-dasharray: none; stroke-linecap: butt; stroke-dashoffset: 0; stroke-linejoin: miter; stroke-miterlimit: 4; fill: url(#SVGID_20); fill-rule: nonzero; opacity: 1;" transform=" translate(-30.1, -30.1)" d="M 0 30.1 C 0 13.476230000000001 13.47623 0 30.1 0 C 46.72377 0 60.2 13.47623 60.2 30.1 C 60.2 46.72377 46.72377 60.2 30.1 60.2 C 13.476230000000001 60.2 0 46.72377 0 30.1 z" stroke-linecap="round"></path></g></g></g></svg>