<svg xmlns="http://www.w3.org/2000/svg" fill="#000000" viewBox="0 0 50 50" width="100px" height="100px"><path d="M 12.984375 2.9863281 A 1.0001 1.0001 0 0 0 12 4 L 12 5 L 9.9042969 5 C 8.3022335 5 7 6.3374852 7 7.9394531 L 7 44.060547 C 7 45.66302 8.3022335 47 9.9042969 47 L 40.095703 47 C 41.697766 47 43 45.662515 43 44.060547 L 43 7.9394531 C 43 6.3374852 41.697766 5 40.095703 5 L 39 5 L 39 7 L 40.095703 7 C 40.59764 7 41 7.3994211 41 7.9394531 L 41 44.060547 C 41 44.600579 40.59764 45 40.095703 45 L 9.9042969 45 C 9.4023602 45 9 44.602074 9 44.060547 L 9 7.9394531 C 9 7.3994211 9.4023602 7 9.9042969 7 L 12 7 L 12 8 A 1.0001 1.0001 0 1 0 14 8 L 14 4 A 1.0001 1.0001 0 0 0 12.984375 2.9863281 z M 18.984375 2.9863281 A 1.0001 1.0001 0 0 0 18 4 L 18 5 L 15 5 L 15 7 L 18 7 L 18 8 A 1.0001 1.0001 0 1 0 20 8 L 20 4 A 1.0001 1.0001 0 0 0 18.984375 2.9863281 z M 24.984375 2.9863281 A 1.0001 1.0001 0 0 0 24 4 L 24 5 L 21 5 L 21 7 L 24 7 L 24 8 A 1.0001 1.0001 0 1 0 26 8 L 26 4 A 1.0001 1.0001 0 0 0 24.984375 2.9863281 z M 30.984375 2.9863281 A 1.0001 1.0001 0 0 0 30 4 L 30 5 L 27 5 L 27 7 L 30 7 L 30 8 A 1.0001 1.0001 0 1 0 32 8 L 32 4 A 1.0001 1.0001 0 0 0 30.984375 2.9863281 z M 36.984375 2.9863281 A 1.0001 1.0001 0 0 0 36 4 L 36 5 L 33 5 L 33 7 L 36 7 L 36 8 A 1.0001 1.0001 0 1 0 38 8 L 38 4 A 1.0001 1.0001 0 0 0 36.984375 2.9863281 z M 14 16 L 14 18 L 32 18 L 32 16 L 14 16 z M 14 23 L 14 25 L 36 25 L 36 23 L 14 23 z M 14 30 L 14 32 L 32 32 L 32 30 L 14 30 z M 14 37 L 14 39 L 34 39 L 34 37 L 14 37 z"></path></svg>