<svg xmlns="http://www.w3.org/2000/svg" xmlns:xlink="http://www.w3.org/1999/xlink" id="Layer_1" x="0px" y="0px" viewBox="0 0 3000 1179.3" style="enable-background:new 0 0 3000 1179.3;" xml:space="preserve">
<style type="text/css">
	.st0{fill:#FF2F8D;}
	.st1{fill:url(#SVGID_1_);}
	.st2{fill:url(#SVGID_2_);}
	.st3{fill:url(#SVGID_3_);}
	.st4{fill:url(#SVGID_4_);}
	.st5{fill:url(#SVGID_5_);}
	.st6{fill:url(#SVGID_6_);}
	.st7{fill:url(#SVGID_7_);}
	.st8{fill:url(#SVGID_8_);}
	.st9{fill:url(#SVGID_9_);}
	.st10{fill:url(#SVGID_10_);}
</style>
<g>
	<g>
		<g>
			<path class="st0" d="M482.1,1061.7h-79.8c-8.6,0-15.5-6.9-15.5-15.5V133.1c0-8.6,6.9-15.5,15.5-15.5h79.8     c8.6,0,15.5,6.9,15.5,15.5v913.1C497.6,1054.7,490.6,1061.7,482.1,1061.7z"></path>
			<path class="st0" d="M296.7,826.4h-89c-6,0-10.9-4.9-10.9-10.9v-446c0-6,4.9-10.9,10.9-10.9h89c6,0,10.9,4.9,10.9,10.9v446     C307.6,821.5,302.7,826.4,296.7,826.4z"></path>
			<path class="st0" d="M674.1,826.4h-89c-6,0-10.9-4.9-10.9-10.9v-446c0-6,4.9-10.9,10.9-10.9h89c6,0,10.9,4.9,10.9,10.9v446     C685,821.5,680.1,826.4,674.1,826.4z"></path>
			<path class="st0" d="M843.3,729h-82.8c-7.7,0-14-6.3-14-14V498.6c0-7.7,6.3-14,14-14h82.8c7.7,0,14,6.3,14,14V715     C857.3,722.8,851,729,843.3,729z"></path>
			<path class="st0" d="M123,729H40.2c-7.7,0-14-6.3-14-14V498.6c0-7.7,6.3-14,14-14H123c7.7,0,14,6.3,14,14V715     C137,722.8,130.7,729,123,729z"></path>
		</g>
		<linearGradient id="SVGID_1_" gradientUnits="userSpaceOnUse" x1="936.3499" y1="624.0659" x2="3189.7175" y2="616.466">
			<stop offset="0" style="stop-color:#FF309E"></stop>
			<stop offset="1" style="stop-color:#D63CFF"></stop>
		</linearGradient>
		<path class="st1" d="M1021.1,518c-1.9-4.5-2.9-9.4-2.9-14.8c0-4.5,0.8-8.9,2.3-13.3c1.6-4.4,3.8-8.2,6.7-11.6    c2.9-3.3,6.4-6,10.3-8c4-2,8.3-3.1,13-3.1c6.2,0,12,1.9,17.3,5.8c5.3,3.9,9.4,9,12.1,15.4l61.8,171.7l60.1-171.4    c2.5-6.6,6.6-11.9,12.1-15.8c5.5-3.9,11.4-5.8,17.6-5.8c4.7,0,9,1,13,3.1c4,2,7.4,4.7,10.2,8c2.8,3.3,5,7.1,6.6,11.4    c1.6,4.3,2.3,8.7,2.3,13.2c0,4.7-1,9.8-2.9,15.1l-89.1,240.6c-3.9,7.9-8.4,13.5-13.4,16.6c-5.1,3.1-10.7,4.7-16.9,4.7    c-7.4,0-13.6-2.2-18.6-6.6c-5.1-4.4-8.6-9.3-10.8-14.6L1021.1,518z"></path>
		<linearGradient id="SVGID_2_" gradientUnits="userSpaceOnUse" x1="936.3526" y1="624.8897" x2="3189.7202" y2="617.2898">
			<stop offset="0" style="stop-color:#FF309E"></stop>
			<stop offset="1" style="stop-color:#D63CFF"></stop>
		</linearGradient>
		<path class="st2" d="M1278.9,623.6c0-21.9,3.9-42.5,11.8-61.8c7.8-19.3,18.6-36.1,32.1-50.5c13.6-14.4,29.4-25.8,47.4-34.1    c18.1-8.3,37.4-12.5,58-12.5c20.6,0,40,4.2,58.1,12.5c18.2,8.3,34,19.7,47.4,34.1c13.5,14.4,24.1,31.3,32,50.5    c7.8,19.3,11.8,39.9,11.8,61.8c0,21.9-3.9,42.4-11.8,61.6c-7.9,19.2-18.5,35.9-32,50.2s-29.3,25.6-47.4,34    c-18.2,8.3-37.5,12.5-58.1,12.5c-20.6,0-39.9-4.2-58-12.5c-18.1-8.3-33.9-19.7-47.4-34c-13.6-14.3-24.3-31-32.1-50.2    C1282.8,666,1278.9,645.4,1278.9,623.6z M1346.8,623.6c0,11.9,2.1,23.1,6.4,33.5c4.3,10.4,10.1,19.5,17.5,27.3    c7.4,7.8,15.9,14,25.8,18.5c9.8,4.6,20.3,6.8,31.6,6.8c11.4,0,22.1-2.3,32-6.8c9.9-4.5,18.5-10.7,25.9-18.5    c7.4-7.8,13.1-16.9,17.3-27.3c4.2-10.4,6.3-21.6,6.3-33.5c0-11.9-2.1-23.1-6.4-33.5c-4.3-10.4-10.1-19.5-17.5-27.3    c-7.4-7.8-16-13.9-25.9-18.4c-9.9-4.4-20.5-6.7-31.7-6.7c-11,0-21.5,2.2-31.4,6.7c-9.9,4.4-18.5,10.6-25.9,18.4    c-7.4,7.8-13.2,16.9-17.5,27.3C1348.9,600.5,1346.8,611.6,1346.8,623.6z"></path>
		<linearGradient id="SVGID_3_" gradientUnits="userSpaceOnUse" x1="936.3605" y1="627.2191" x2="3189.728" y2="619.6192">
			<stop offset="0" style="stop-color:#FF309E"></stop>
			<stop offset="1" style="stop-color:#D63CFF"></stop>
		</linearGradient>
		<path class="st3" d="M2236.3,760.5c-5.9,4.1-12.6,7.7-20.3,10.8c-7.7,3.1-16.3,5.6-25.8,7.5c-9.6,1.9-20.3,2.8-32.3,2.8    c-20.8,0-40.3-4.2-58.5-12.5c-18.3-8.3-34.2-19.7-47.8-34.1c-13.6-14.4-24.4-31.2-32.4-50.4c-8-19.2-12-39.7-12-61.7    c0-21.9,4-42.5,12-61.8c8-19.3,18.8-36.1,32.4-50.4c13.6-14.3,29.6-25.6,47.8-33.9c18.3-8.3,37.8-12.5,58.5-12.5    c20.6,0,39.9,4.1,58.1,12.3c18.1,8.2,34.1,19.3,47.8,33.4c13.7,14.1,24.6,30.6,32.6,49.7c8,19.1,12.2,39.4,12.6,61.2    c0,10.2-3.1,18.4-9.3,24.8c-6.2,6.3-14.3,9.5-24.4,9.5l-205.7,0c27.7,58.4,72.9,87.4,147.3,45.1c15.3-8.7,29.7-3.4,37.7,6.8    C2265.1,720.4,2266.7,739.8,2236.3,760.5z M2235.9,593.2c-2.4-9.9-6.2-18.9-11.4-26.9c-5.2-8-11.4-14.8-18.6-20.4    c-7.2-5.6-15.2-9.8-24-12.7c-8.8-2.9-18.3-4.4-28.3-4.4c-10,0-19.4,1.6-28.3,4.7c-8.8,3.2-16.8,7.5-23.9,13.1    c-7.1,5.6-13.1,12.3-18.1,20.2c-5,7.9-8.7,16.7-11.1,26.4H2235.9z"></path>
		<linearGradient id="SVGID_4_" gradientUnits="userSpaceOnUse" x1="936.3569" y1="626.142" x2="3189.7246" y2="618.5421">
			<stop offset="0" style="stop-color:#FF309E"></stop>
			<stop offset="1" style="stop-color:#D63CFF"></stop>
		</linearGradient>
		<path class="st4" d="M1642.6,781.6L1642.6,781.6c-16.6,0-30-13.4-30-30V495.9c0-16.6,13.4-30,30-30l0,0c16.6,0,30,13.4,30,30    v255.8C1672.6,768.2,1659.2,781.6,1642.6,781.6z"></path>
		<linearGradient id="SVGID_5_" gradientUnits="userSpaceOnUse" x1="936.8349" y1="767.8751" x2="3190.2026" y2="760.2751">
			<stop offset="0" style="stop-color:#FF309E"></stop>
			<stop offset="1" style="stop-color:#D63CFF"></stop>
		</linearGradient>
		<circle class="st5" cx="2551.2" cy="762.4" r="19.6"></circle>
		<g>
			<linearGradient id="SVGID_6_" gradientUnits="userSpaceOnUse" x1="936.3627" y1="627.8738" x2="3189.7302" y2="620.2739">
				<stop offset="0" style="stop-color:#FF309E"></stop>
				<stop offset="1" style="stop-color:#D63CFF"></stop>
			</linearGradient>
			<path class="st6" d="M1852.6,780.9c-0.6,0-1.1,0-1.7,0c-50.7-0.6-97-28.1-123.7-73.6c-27-46-30.2-100.6-8.9-149.9     c23.7-54.9,73.5-88.1,133.4-88.8c0.6,0,1.3,0,1.9,0c57.6,0,109.1,31.2,131.5,79.9c6.9,15,0.3,32.8-14.7,39.7     c-15,6.9-32.8,0.3-39.7-14.7c-12.8-27.8-43.6-45.5-78.3-45.1c-17.1,0.2-58.9,5.8-79.2,52.6c-13.6,31.6-11.6,66.6,5.6,95.9     c16,27.2,43.2,43.7,72.7,44c0.3,0,0.6,0,0.9,0c31.6,0,60.8-17.9,80.2-49.3c8.7-14.1,27.1-18.4,41.2-9.7     c14.1,8.7,18.4,27.1,9.7,41.2C1953.1,752.7,1905.4,780.9,1852.6,780.9z"></path>
		</g>
		<linearGradient id="SVGID_7_" gradientUnits="userSpaceOnUse" x1="936.3665" y1="628.985" x2="3189.7341" y2="621.3852">
			<stop offset="0" style="stop-color:#FF309E"></stop>
			<stop offset="1" style="stop-color:#D63CFF"></stop>
		</linearGradient>
		<path class="st7" d="M2458.4,567.1c6.4,3.7,13.8,5,21.2,2.9c5.5-1.6,10.2-5.2,13.7-9.7c18.5-23.4,6.2-49.1-24.9-74.8    c-92.3-76.4-215.6,85.8-92.8,159.1c9.7,5.8,20.7,9.2,32,10.3l0,0c36.7,0.8,44.4,40,23.3,58.3c-12.4,10.8-31.5,7.9-41.2-5.3    c0,0-12.5-18.6-17.6-24c-8.2-8.7-26.1-11.6-36.4-0.5c-10.8,11.6-13.2,28.8-4,43.6c57.7,92.2,156.3,59.2,168.8-24.5    c5.7-38.4-11.7-77.1-44.7-97.5c-9.4-5.8-19.5-9.4-30.5-10.1c-2.2-0.1-4.5-0.2-6.7-0.5c-38-5.1-46.5-43-16.9-60.2    c8.2-4.8,18.3-5.4,26.6-0.7c6.1,3.5,10.6,9,14,15.8C2446,556.6,2451.4,563,2458.4,567.1z"></path>
		<linearGradient id="SVGID_8_" gradientUnits="userSpaceOnUse" x1="2402.4102" y1="681.9102" x2="3206.6655" y2="688.0379">
			<stop offset="0" style="stop-color:#FF309E"></stop>
			<stop offset="1.907820e-02" style="stop-color:#FC31A6"></stop>
			<stop offset="9.723085e-02" style="stop-color:#F034C1"></stop>
			<stop offset="0.1861" style="stop-color:#E637D8"></stop>
			<stop offset="0.2885" style="stop-color:#DF39EA"></stop>
			<stop offset="0.4129" style="stop-color:#DA3BF6"></stop>
			<stop offset="0.5824" style="stop-color:#D73CFD"></stop>
			<stop offset="1" style="stop-color:#D63CFF"></stop>
		</linearGradient>
		<path class="st8" d="M2764,753.8c0,2.9-0.5,5.7-1.5,8.2c-1,2.5-2.4,4.7-4.1,6.5c-1.7,1.9-3.7,3.3-6.1,4.3c-2.4,1-4.9,1.5-7.5,1.5    c-2.8,0-5.4-0.5-7.8-1.5c-2.4-1-4.5-2.5-6.3-4.3c-1.8-1.9-3.3-4-4.3-6.5c-1.1-2.5-1.6-5.2-1.6-8.2v-71.4c0-1,0.1-1.8,0.2-2.3    c-0.2-6.3-1.5-12.2-3.7-17.7c-2.2-5.5-5.2-10.3-8.9-14.4c-3.7-4.1-8.1-7.3-13.1-9.7c-5.1-2.4-10.6-3.6-16.5-3.6    c-6.2,0-11.8,1.2-17,3.6c-5.2,2.4-9.6,5.7-13.3,9.9c-3.7,4.2-6.6,9.2-8.7,14.9c-2.1,5.7-3.2,11.8-3.2,18.3v72.3    c0,2.9-0.5,5.7-1.4,8.2c-1,2.5-2.3,4.7-4.1,6.5c-1.8,1.9-3.8,3.3-6.2,4.3c-2.4,1-4.9,1.5-7.5,1.5c-2.7,0-5.2-0.5-7.6-1.5    c-2.4-1-4.6-2.5-6.4-4.3c-1.9-1.9-3.3-4-4.4-6.5c-1.1-2.5-1.6-5.2-1.6-8.2v-71.4v-0.8v-0.2c0-12.3,2.1-23.8,6.2-34.4    c4.2-10.7,9.9-20,17.2-28c7.3-8,15.9-14.3,25.9-18.9c10-4.6,20.7-6.9,32.1-6.9c11.6,0,22.3,2.3,32.2,6.9    c9.9,4.6,18.5,10.9,25.7,18.9c7.2,8,12.9,17.3,17.1,28c4.2,10.7,6.2,22.2,6.2,34.4v0.2v0.8V753.8z"></path>
		<linearGradient id="SVGID_9_" gradientUnits="userSpaceOnUse" x1="2402.7603" y1="635.966" x2="3207.0156" y2="642.0936">
			<stop offset="0" style="stop-color:#FF309E"></stop>
			<stop offset="1.660657e-02" style="stop-color:#FC31A5"></stop>
			<stop offset="9.822518e-02" style="stop-color:#F034C1"></stop>
			<stop offset="0.1906" style="stop-color:#E737D8"></stop>
			<stop offset="0.2965" style="stop-color:#DF39E9"></stop>
			<stop offset="0.4241" style="stop-color:#DA3BF6"></stop>
			<stop offset="0.5958" style="stop-color:#D73CFD"></stop>
			<stop offset="1" style="stop-color:#D63CFF"></stop>
		</linearGradient>
		<path class="st9" d="M2817.9,774.4L2817.9,774.4c-10.9,0-19.8-8.9-19.8-19.8V523.7c0-10.9,8.9-19.8,19.8-19.8l0,0    c10.9,0,19.8,8.9,19.8,19.8v230.9C2837.7,765.5,2828.8,774.4,2817.9,774.4z"></path>
	</g>
	<linearGradient id="SVGID_10_" gradientUnits="userSpaceOnUse" x1="1195.2068" y1="374.2411" x2="2068.3982" y2="378.8369">
		<stop offset="0" style="stop-color:#FF309E"></stop>
		<stop offset="1" style="stop-color:#D63CFF"></stop>
	</linearGradient>
	<circle class="st10" cx="1642.6" cy="376.6" r="30.1"></circle>
</g>
</svg>