<svg xmlns="http://www.w3.org/2000/svg" xmlns:xlink="http://www.w3.org/1999/xlink" id="Layer_1" x="0px" y="0px" viewBox="0 0 3000 1179.3" style="enable-background:new 0 0 3000 1179.3;" xml:space="preserve"><style type="text/css">	.st0{fill:url(#SVGID_1_);stroke:#FF2F8D;stroke-width:0.9114;stroke-miterlimit:10;}			.st1{fill:url(#SVGID_00000066503693335927433160000014537140878574538174_);stroke:#FF2F8D;stroke-width:0.9114;stroke-miterlimit:10;}			.st2{fill:url(#SVGID_00000148655970500226959330000013270315972211919009_);stroke:#FF2F8D;stroke-width:0.9114;stroke-miterlimit:10;}			.st3{fill:url(#SVGID_00000025419462003932396460000015759204932827908251_);stroke:#FF2F8D;stroke-width:0.9114;stroke-miterlimit:10;}			.st4{fill:url(#SVGID_00000080905914380139618380000011880087649219358876_);stroke:#FF2F8D;stroke-width:0.9114;stroke-miterlimit:10;}	.st5{fill:url(#SVGID_00000011004612684983017990000014833125764594768295_);}	.st6{fill:url(#SVGID_00000001664493403367803610000004643003514792974014_);}	.st7{fill:url(#SVGID_00000043435945644291336420000000348865502661149071_);}	.st8{fill:url(#SVGID_00000158716750727430463660000007849391964595566271_);}	.st9{fill:url(#SVGID_00000005968618859283772910000010314869492430623414_);}	.st10{fill:url(#SVGID_00000155131304362853501720000001659228245400317612_);}	.st11{fill:url(#SVGID_00000072986199828605392480000016251614161256581300_);}	.st12{fill:url(#SVGID_00000114793384597607535170000001521371888217609907_);}	.st13{fill:url(#SVGID_00000162316949921166584550000003645081367256584331_);}	.st14{fill:url(#SVGID_00000004536990149360285520000016140233296221344425_);}</style><g>	<g>		<linearGradient id="SVGID_1_" gradientUnits="userSpaceOnUse" x1="-98.5311" y1="589.6383" x2="3000.0906" y2="589.6383">			<stop offset="0" style="stop-color:#E51D68"></stop>			<stop offset="1" style="stop-color:#960BD6"></stop>		</linearGradient>		<path class="st0" d="M466.6,1019.8h-72.8c-7.8,0-14.1-6.3-14.1-14.1V173.6c0-7.8,6.3-14.1,14.1-14.1h72.8   c7.8,0,14.1,6.3,14.1,14.1v832.1C480.7,1013.5,474.4,1019.8,466.6,1019.8z"></path>					<linearGradient id="SVGID_00000140702294171063348180000000718951216962848415_" gradientUnits="userSpaceOnUse" x1="-98.5311" y1="592.2354" x2="3000.0906" y2="592.2354">			<stop offset="0" style="stop-color:#E51D68"></stop>			<stop offset="1" style="stop-color:#960BD6"></stop>		</linearGradient>					<path style="fill:url(#SVGID_00000140702294171063348180000000718951216962848415_);stroke:#FF2F8D;stroke-width:0.9114;stroke-miterlimit:10;" d="   M297.6,805.4h-81.1c-5.5,0-9.9-4.4-9.9-9.9V389c0-5.5,4.4-9.9,9.9-9.9h81.1c5.5,0,9.9,4.4,9.9,9.9v406.4   C307.5,800.9,303.1,805.4,297.6,805.4z"></path>					<linearGradient id="SVGID_00000044163934760441706030000013215301494254286750_" gradientUnits="userSpaceOnUse" x1="-98.5311" y1="592.2354" x2="3000.0906" y2="592.2354">			<stop offset="0" style="stop-color:#E51D68"></stop>			<stop offset="1" style="stop-color:#960BD6"></stop>		</linearGradient>					<path style="fill:url(#SVGID_00000044163934760441706030000013215301494254286750_);stroke:#FF2F8D;stroke-width:0.9114;stroke-miterlimit:10;" d="   M641.7,805.4h-81.1c-5.5,0-9.9-4.4-9.9-9.9V389c0-5.5,4.4-9.9,9.9-9.9h81.1c5.5,0,9.9,4.4,9.9,9.9v406.4   C651.6,800.9,647.2,805.4,641.7,805.4z"></path>					<linearGradient id="SVGID_00000116926744693086171650000014972469191389863307_" gradientUnits="userSpaceOnUse" x1="-98.5311" y1="605.3012" x2="3000.0906" y2="605.3012">			<stop offset="0" style="stop-color:#E51D68"></stop>			<stop offset="1" style="stop-color:#960BD6"></stop>		</linearGradient>					<path style="fill:url(#SVGID_00000116926744693086171650000014972469191389863307_);stroke:#FF2F8D;stroke-width:0.9114;stroke-miterlimit:10;" d="   M795.8,716.7h-75.5c-7.1,0-12.8-5.7-12.8-12.8V506.7c0-7.1,5.7-12.8,12.8-12.8h75.5c7.1,0,12.8,5.7,12.8,12.8v197.2   C808.6,710.9,802.9,716.7,795.8,716.7z"></path>					<linearGradient id="SVGID_00000142141788098658397020000016849812761805004426_" gradientUnits="userSpaceOnUse" x1="-98.5311" y1="605.3012" x2="3000.0906" y2="605.3012">			<stop offset="0" style="stop-color:#E51D68"></stop>			<stop offset="1" style="stop-color:#960BD6"></stop>		</linearGradient>					<path style="fill:url(#SVGID_00000142141788098658397020000016849812761805004426_);stroke:#FF2F8D;stroke-width:0.9114;stroke-miterlimit:10;" d="   M139.3,716.7H63.8c-7.1,0-12.8-5.7-12.8-12.8V506.7c0-7.1,5.7-12.8,12.8-12.8h75.5c7.1,0,12.8,5.7,12.8,12.8v197.2   C152,710.9,146.3,716.7,139.3,716.7z"></path>	</g>			<linearGradient id="SVGID_00000007386315346774458250000000356630980717720735_" gradientUnits="userSpaceOnUse" x1="-98.5311" y1="615.979" x2="3000.0906" y2="615.979">		<stop offset="0" style="stop-color:#E51D68"></stop>		<stop offset="1" style="stop-color:#960BD6"></stop>	</linearGradient>	<path style="fill:url(#SVGID_00000007386315346774458250000000356630980717720735_);" d="M926.4,833.9c0-16.5,14.5-30.2,34.7-30.2  V511.3c0-17.6,15.8-31.3,34-31.3c19.5,0,34,13.7,34,31.3v292.5c0,33.6-30.3,61.5-68.1,61.5C940.9,865.2,926.4,852.2,926.4,833.9z   M961.7,409.4V398c0-18.2,15.8-31.3,34.7-31.3c18.9,0,34,13.1,34,31.3v11.4c0,16.5-15.1,31.3-34,31.3  C977.5,440.7,961.7,425.9,961.7,409.4z"></path>			<linearGradient id="SVGID_00000121278383024331385730000001264027023068912002_" gradientUnits="userSpaceOnUse" x1="-98.5311" y1="619.5422" x2="3000.0906" y2="619.5422">		<stop offset="0" style="stop-color:#E51D68"></stop>		<stop offset="1" style="stop-color:#960BD6"></stop>	</linearGradient>	<path style="fill:url(#SVGID_00000121278383024331385730000001264027023068912002_);" d="M1119.1,719.4c-24.3-25-39-60.3-39-100.2  c0-38.7,14.7-72.3,39-99.6c25.4-26.7,58.2-43.3,97.2-43.3c37.3,0,71.2,16.5,94.4,43.3c25.4,27.3,39.6,60.9,39.6,99.6  c0,39.8-14.1,75.1-39.6,100.2c-23.2,26.7-57.1,43.3-94.4,43.3C1177.3,762.7,1144.5,746.2,1119.1,719.4z M1141.7,619.3  c0,24.5,7.3,44.4,20.3,60.3c14.1,13.7,32.8,21.1,54.3,21.1c19.8,0,37.9-7.4,52-21.1c14.1-15.9,22-35.9,22-60.3  c0-23.3-7.9-43.8-22-59.2c-14.1-12.5-32.2-21.6-52-21.6c-21.5,0-40.1,9.1-54.3,21.6C1149.1,575.4,1141.7,595.9,1141.7,619.3z"></path>			<linearGradient id="SVGID_00000021831651733303490970000000762152732319888024_" gradientUnits="userSpaceOnUse" x1="-98.5311" y1="561.7784" x2="3000.0906" y2="561.7784">		<stop offset="0" style="stop-color:#E51D68"></stop>		<stop offset="1" style="stop-color:#960BD6"></stop>	</linearGradient>	<path style="fill:url(#SVGID_00000021831651733303490970000000762152732319888024_);" d="M1458.7,729.7c0,17.6-12.8,31.3-28.7,31.3  c-12.8,0-23.6-10.2-27.1-23.3c-0.5-2.3-1-5.1-1-8V393.9c0-17.6,12.8-31.3,28.2-31.3c15.9,0,28.7,13.7,28.7,31.3v99  c16.4-9.7,34.8-16.5,54.8-16.5c62,0,111.6,56.3,111.6,124.6v128.6c0,17.6-12.3,31.3-28.2,31.3c-15.9,0-28.2-13.7-28.2-31.3V601  c0-33.6-24.6-60.9-55.3-61.5c-30.2,0.6-54.3,27.9-54.8,61.5V729.7z"></path>			<linearGradient id="SVGID_00000123438080080662738180000011695016204924556177_" gradientUnits="userSpaceOnUse" x1="-98.5311" y1="562.8656" x2="3000.0906" y2="562.8656">		<stop offset="0" style="stop-color:#E51D68"></stop>		<stop offset="1" style="stop-color:#960BD6"></stop>	</linearGradient>	<path style="fill:url(#SVGID_00000123438080080662738180000011695016204924556177_);" d="M1795.2,459.3v8h16.9  c16.9,0,31,13.7,31,31.3c0,17.1-14.1,31.3-31,31.3h-16.9v200.9c0,17.1-13.5,31.3-31,31.3c-17.5,0-31-14.2-31-31.3V529.9h-14.7  c-17.5,0-31.6-14.2-31.6-31.3c0-17.6,14.1-31.3,31.6-31.3h14.7v-8c0-21.1,2.3-39.3,10.7-55.8c7.9-17.1,23.7-30.2,40.6-35.3  c11.3-3.4,22-4.6,33.8-4.6c16.9,0,31,14.2,31,31.3c0,17.6-14.1,31.9-31,31.9c-7.3,0-12.4,0.6-14.7,1.7c-2.3,0.6-2.8,1.1-3.4,1.7  C1799.7,430.3,1795.2,438.2,1795.2,459.3z"></path>			<linearGradient id="SVGID_00000163788675543314109370000008745306992819205259_" gradientUnits="userSpaceOnUse" x1="-98.5311" y1="618.6071" x2="3000.0906" y2="618.6071">		<stop offset="0" style="stop-color:#E51D68"></stop>		<stop offset="1" style="stop-color:#960BD6"></stop>	</linearGradient>	<path style="fill:url(#SVGID_00000163788675543314109370000008745306992819205259_);" d="M2063.2,506.2c0,15.9-12.3,30.2-28.4,30.2  c-12.3,0-76-14.3-77.8,82.2l-1,111.8c0,16.5-13.4,30.2-29.5,30.2c-15.5,0-28.4-13.7-28.4-30.2V506.2c0-16.5,12.9-29.6,28.4-29.6  c16.1,0,29.5,13.1,29.5,29.6v4c3.2-4,7.5-8.5,11.3-11.4c17.7-12.5,40.7-22.8,67.5-22.2C2050.8,476.6,2063.2,489.7,2063.2,506.2z"></path>			<linearGradient id="SVGID_00000050649089372263817780000017273300714419330176_" gradientUnits="userSpaceOnUse" x1="-98.5311" y1="620.1089" x2="3000.0906" y2="620.1089">		<stop offset="0" style="stop-color:#E51D68"></stop>		<stop offset="1" style="stop-color:#960BD6"></stop>	</linearGradient>	<path style="fill:url(#SVGID_00000050649089372263817780000017273300714419330176_);" d="M2349.1,620.7v111.5  c0,16.5-12.7,30.2-28,30.2c-13.7,0-24.3-10.8-27.5-24.5c-20.1,15.4-43.8,24.5-70.3,24.5c-35.9,0-67.1-15.9-89.8-41.5  c-22.7-26.2-35.9-61.5-35.9-100.2c0-39.3,13.2-74.6,35.9-100.2c22.7-26.2,53.9-42.7,89.8-42.7c26.4,0,50.2,9.7,70.3,25  c3.2-14.2,13.7-25,27.5-25c15.3,0,28,13.7,28,30.7V620.7z M2293.1,620.7c0-23.9-7.9-44.4-20.6-58.6c-12.7-15.4-30.6-23.3-49.1-23.3  c-19,0-37,8-49.1,23.3c-12.7,14.2-20.1,34.7-20.1,58.6c0,23.3,7.4,43.8,20.1,58.6c12.1,14.2,30.1,22.2,49.1,22.2  c18.5,0,36.4-8,49.1-22.2C2285.2,664.5,2293.1,644,2293.1,620.7z"></path>			<linearGradient id="SVGID_00000121259010628841026100000002635549048489834405_" gradientUnits="userSpaceOnUse" x1="-98.5311" y1="564.619" x2="3000.0906" y2="564.619">		<stop offset="0" style="stop-color:#E51D68"></stop>		<stop offset="1" style="stop-color:#960BD6"></stop>	</linearGradient>	<path style="fill:url(#SVGID_00000121259010628841026100000002635549048489834405_);" d="M2470.3,732.5c0,17.6-13.8,31.3-30.8,31.3  c-13.8,0-25.3-10.2-29.2-23.3c-0.5-2.3-1.1-5.1-1.1-8V396.7c0-17.6,13.8-31.3,30.3-31.3c17.1,0,30.8,13.7,30.8,31.3v99  c17.6-9.7,37.4-16.5,58.9-16.5c66.6,0,119.9,56.3,119.9,124.6v128.6c0,17.6-13.2,31.3-30.3,31.3c-17.1,0-30.3-13.7-30.3-31.3V603.9  c0-33.6-26.4-60.9-59.4-61.5c-32.5,0.6-58.3,27.9-58.9,61.5V732.5z"></path>			<linearGradient id="SVGID_00000141414948840368501750000010509226809220566436_" gradientUnits="userSpaceOnUse" x1="-98.5311" y1="751.4005" x2="3000.0906" y2="751.4005">		<stop offset="0" style="stop-color:#E51D68"></stop>		<stop offset="1" style="stop-color:#960BD6"></stop>	</linearGradient>	<path style="fill:url(#SVGID_00000141414948840368501750000010509226809220566436_);" d="M2697.2,738.1c6.6,0,12,6.1,12,13.4  c0,7.3-5.5,13.2-12,13.2s-11.9-5.9-11.9-13.2C2685.3,744.2,2690.6,738.1,2697.2,738.1z"></path>			<linearGradient id="SVGID_00000179638988482055655670000002512431825703027894_" gradientUnits="userSpaceOnUse" x1="-98.5311" y1="687.9234" x2="3000.0906" y2="687.9234">		<stop offset="0" style="stop-color:#E51D68"></stop>		<stop offset="1" style="stop-color:#960BD6"></stop>	</linearGradient>	<path style="fill:url(#SVGID_00000179638988482055655670000002512431825703027894_);" d="M2731.7,710.2c0-0.2,0-0.2,0-0.2v-87.5  c0-6.4,4.9-11.9,11.1-11.9c6.3,0,11.3,5.5,11.3,11.9v41.5c7.6-5.7,17.4-9.3,27.4-9.3c27.6,0,49.7,25.2,49.7,55.4  c0,29.8-22.1,55-49.7,55c-10.2,0-20.1-3.8-27.8-9.5c-1,5.3-5.3,9.5-10.8,9.5c-6.1,0-11.1-5.5-11.1-11.9V710.2z M2754,710.2  c0,8.4,3.1,16.3,8.2,21.9c5.1,5.7,11.7,9.1,19.2,9.1c7.4,0,14.1-3.3,19.2-9.1c5.1-5.5,8.2-13.5,8.2-21.9c0-8.8-3.1-16.8-8.2-22.3  c-5.1-5.7-11.9-9.1-19.2-9.1c-7.6,0-14.1,3.3-19.2,9.1C2757,693.4,2754,701.4,2754,710.2z"></path>			<linearGradient id="SVGID_00000039847167420139894060000010296004438252437405_" gradientUnits="userSpaceOnUse" x1="-98.5311" y1="709.1573" x2="3000.0906" y2="709.1573">		<stop offset="0" style="stop-color:#E51D68"></stop>		<stop offset="1" style="stop-color:#960BD6"></stop>	</linearGradient>	<path style="fill:url(#SVGID_00000039847167420139894060000010296004438252437405_);" d="M2850.3,709.2  c0.2-30.9,21.9-56.8,49.9-56.8c26.6,0,47.6,22,49.2,52.7c0,0.2,0,0.7,0,1.1c0,0.5,0,1.6-0.2,2c-0.6,5.5-4.9,9.1-10.6,9.1h-65  c1,5.2,3.3,11.1,6.9,15c4.3,5.5,12.5,9.5,19.6,10.2c7.4,0.7,16.1-1.4,21.3-5.7c4.3-5,12.7-4.3,15.3-0.7c2.7,3.2,4.7,10,0,14.8  c-10,10.2-22.1,15-36.6,15C2872.2,765.7,2850.5,740,2850.3,709.2z M2872.6,698h57.8c-2-9.1-12.5-22.5-30.2-24.1  C2882.8,674.9,2874.2,688.7,2872.6,698z"></path></g></svg>